<svg xmlns="http://www.w3.org/2000/svg" xmlns:xlink="http://www.w3.org/1999/xlink" version="1.1" class="marks" width="1263" height="894" viewBox="0 0 1263 894"><rect width="1263" height="894" fill="#f0f0f0"/><g fill="none" stroke-miterlimit="10" transform="translate(48,40)"><g class="mark-group role-frame root" role="graphics-object" aria-roledescription="group mark container"><g transform="translate(0,0)"><path class="background" aria-hidden="true" d="M0,0h1200v800h-1200Z" fill="#f0f0f0"/><g><g class="mark-path role-mark" role="graphics-symbol" aria-roledescription="path mark container"><path transform="translate(0,0)" d="M689.8026315789474,0L689.8026315789474,80" stroke="#222" stroke-width="0.5"/><path transform="translate(0,0)" d="M689.8026315789474,80L689.8026315789474,160" stroke="#222" stroke-width="0.5"/><path transform="translate(0,0)" d="M689.8026315789474,160L400.6578947368421,240" stroke="#222" stroke-width="0.5"/><path transform="translate(0,0)" d="M689.8026315789474,160L978.9473684210526,240" stroke="#222" stroke-width="0.5"/><path transform="translate(0,0)" d="M400.6578947368421,240L185.5263157894737,320" stroke="#222" stroke-width="0.5"/><path transform="translate(0,0)" d="M400.6578947368421,240L347.3684210526316,320" stroke="#222" stroke-width="0.5"/><path transform="translate(0,0)" d="M400.6578947368421,240L442.10526315789474,320" stroke="#222" stroke-width="0.5"/><path transform="translate(0,0)" d="M400.6578947368421,240L627.6315789473684,320" stroke="#222" stroke-width="0.5"/><path transform="translate(0,0)" d="M978.9473684210526,240L805.2631578947368,480" stroke="#222" stroke-width="0.5"/><path transform="translate(0,0)" d="M978.9473684210526,240L931.578947368421,480" stroke="#222" stroke-width="0.5"/><path transform="translate(0,0)" d="M978.9473684210526,240L1042.1052631578948,480" stroke="#222" stroke-width="0.5"/><path transform="translate(0,0)" d="M978.9473684210526,240L1136.842105263158,320" stroke="#222" stroke-width="0.5"/><path transform="translate(0,0)" d="M185.5263157894737,320L118.42105263157895,400" stroke="#222" stroke-width="0.5"/><path transform="translate(0,0)" d="M185.5263157894737,320L252.6315789473684,480" stroke="#222" stroke-width="0.5"/><path transform="translate(0,0)" d="M347.3684210526316,320L347.3684210526316,480" stroke="#222" stroke-width="0.5"/><path transform="translate(0,0)" d="M442.10526315789474,320L442.10526315789474,720" stroke="#222" stroke-width="0.5"/><path transform="translate(0,0)" d="M627.6315789473684,320L521.0526315789474,480" stroke="#222" stroke-width="0.5"/><path transform="translate(0,0)" d="M627.6315789473684,320L600,480" stroke="#222" stroke-width="0.5"/><path transform="translate(0,0)" d="M627.6315789473684,320L663.1578947368422,480" stroke="#222" stroke-width="0.5"/><path transform="translate(0,0)" d="M627.6315789473684,320L726.3157894736842,480" stroke="#222" stroke-width="0.5"/><path transform="translate(0,0)" d="M805.2631578947368,480L789.4736842105264,720" stroke="#222" stroke-width="0.5"/><path transform="translate(0,0)" d="M805.2631578947368,480L821.0526315789474,720" stroke="#222" stroke-width="0.5"/><path transform="translate(0,0)" d="M931.578947368421,480L884.2105263157895,720" stroke="#222" stroke-width="0.5"/><path transform="translate(0,0)" d="M931.578947368421,480L915.7894736842105,720" stroke="#222" stroke-width="0.5"/><path transform="translate(0,0)" d="M931.578947368421,480L947.3684210526316,720" stroke="#222" stroke-width="0.5"/><path transform="translate(0,0)" d="M931.578947368421,480L978.9473684210526,720" stroke="#222" stroke-width="0.5"/><path transform="translate(0,0)" d="M1042.1052631578948,480L1042.1052631578948,640" stroke="#222" stroke-width="0.5"/><path transform="translate(0,0)" d="M1136.842105263158,320L1136.842105263158,480" stroke="#222" stroke-width="0.5"/><path transform="translate(0,0)" d="M118.42105263157895,400L63.1578947368421,480" stroke="#222" stroke-width="0.5"/><path transform="translate(0,0)" d="M118.42105263157895,400L173.6842105263158,480" stroke="#222" stroke-width="0.5"/><path transform="translate(0,0)" d="M252.6315789473684,480L252.6315789473684,720" stroke="#222" stroke-width="0.5"/><path transform="translate(0,0)" d="M347.3684210526316,480L315.7894736842105,720" stroke="#222" stroke-width="0.5"/><path transform="translate(0,0)" d="M347.3684210526316,480L347.3684210526316,720" stroke="#222" stroke-width="0.5"/><path transform="translate(0,0)" d="M347.3684210526316,480L378.9473684210526,720" stroke="#222" stroke-width="0.5"/><path transform="translate(0,0)" d="M521.0526315789474,480L505.2631578947368,720" stroke="#222" stroke-width="0.5"/><path transform="translate(0,0)" d="M521.0526315789474,480L536.8421052631579,720" stroke="#222" stroke-width="0.5"/><path transform="translate(0,0)" d="M600,480L600,720" stroke="#222" stroke-width="0.5"/><path transform="translate(0,0)" d="M663.1578947368422,480L663.1578947368422,720" stroke="#222" stroke-width="0.5"/><path transform="translate(0,0)" d="M726.3157894736842,480L726.3157894736842,560" stroke="#222" stroke-width="0.5"/><path transform="translate(0,0)" d="M1042.1052631578948,640L1042.1052631578948,720" stroke="#222" stroke-width="0.5"/><path transform="translate(0,0)" d="M1136.842105263158,480L1105.2631578947369,720" stroke="#222" stroke-width="0.5"/><path transform="translate(0,0)" d="M1136.842105263158,480L1136.842105263158,720" stroke="#222" stroke-width="0.5"/><path transform="translate(0,0)" d="M1136.842105263158,480L1168.421052631579,720" stroke="#222" stroke-width="0.5"/><path transform="translate(0,0)" d="M63.1578947368421,480L63.1578947368421,560" stroke="#222" stroke-width="0.5"/><path transform="translate(0,0)" d="M173.6842105263158,480L157.89473684210526,720" stroke="#222" stroke-width="0.5"/><path transform="translate(0,0)" d="M173.6842105263158,480L189.4736842105263,720" stroke="#222" stroke-width="0.5"/><path transform="translate(0,0)" d="M726.3157894736842,560L726.3157894736842,720" stroke="#222" stroke-width="0.5"/><path transform="translate(0,0)" d="M63.1578947368421,560L31.57894736842105,720" stroke="#222" stroke-width="0.5"/><path transform="translate(0,0)" d="M63.1578947368421,560L63.1578947368421,720" stroke="#222" stroke-width="0.5"/><path transform="translate(0,0)" d="M63.1578947368421,560L94.73684210526315,720" stroke="#222" stroke-width="0.5"/></g><g class="mark-symbol role-mark" role="graphics-symbol" aria-roledescription="symbol mark container"><path transform="translate(689.8026315789474,0)" d="M10,0A10,10,0,1,1,-10,0A10,10,0,1,1,10,0" fill="#1f77b4" stroke="#fff"/><path transform="translate(689.8026315789474,80)" d="M10,0A10,10,0,1,1,-10,0A10,10,0,1,1,10,0" fill="#ff7f0e" stroke="#fff"/><path transform="translate(689.8026315789474,160)" d="M10,0A10,10,0,1,1,-10,0A10,10,0,1,1,10,0" fill="#2ca02c" stroke="#fff"/><path transform="translate(400.6578947368421,240)" d="M10,0A10,10,0,1,1,-10,0A10,10,0,1,1,10,0" fill="#d62728" stroke="#fff"/><path transform="translate(978.9473684210526,240)" d="M10,0A10,10,0,1,1,-10,0A10,10,0,1,1,10,0" fill="#d62728" stroke="#fff"/><path transform="translate(185.5263157894737,320)" d="M10,0A10,10,0,1,1,-10,0A10,10,0,1,1,10,0" fill="#9467bd" stroke="#fff"/><path transform="translate(118.42105263157895,400)" d="M10,0A10,10,0,1,1,-10,0A10,10,0,1,1,10,0" fill="#8c564b" stroke="#fff"/><path transform="translate(63.1578947368421,480)" d="M10,0A10,10,0,1,1,-10,0A10,10,0,1,1,10,0" fill="#e377c2" stroke="#fff"/><path transform="translate(63.1578947368421,560)" d="M10,0A10,10,0,1,1,-10,0A10,10,0,1,1,10,0" fill="#7f7f7f" stroke="#fff"/><path transform="translate(31.57894736842105,720)" d="M10,0A10,10,0,1,1,-10,0A10,10,0,1,1,10,0" fill="#bcbd22" stroke="#fff"/><path transform="translate(63.1578947368421,720)" d="M10,0A10,10,0,1,1,-10,0A10,10,0,1,1,10,0" fill="#bcbd22" stroke="#fff"/><path transform="translate(173.6842105263158,480)" d="M10,0A10,10,0,1,1,-10,0A10,10,0,1,1,10,0" fill="#e377c2" stroke="#fff"/><path transform="translate(157.89473684210526,720)" d="M10,0A10,10,0,1,1,-10,0A10,10,0,1,1,10,0" fill="#bcbd22" stroke="#fff"/><path transform="translate(189.4736842105263,720)" d="M10,0A10,10,0,1,1,-10,0A10,10,0,1,1,10,0" fill="#bcbd22" stroke="#fff"/><path transform="translate(94.73684210526315,720)" d="M10,0A10,10,0,1,1,-10,0A10,10,0,1,1,10,0" fill="#bcbd22" stroke="#fff"/><path transform="translate(252.6315789473684,720)" d="M10,0A10,10,0,1,1,-10,0A10,10,0,1,1,10,0" fill="#bcbd22" stroke="#fff"/><path transform="translate(347.3684210526316,320)" d="M10,0A10,10,0,1,1,-10,0A10,10,0,1,1,10,0" fill="#9467bd" stroke="#fff"/><path transform="translate(347.3684210526316,480)" d="M10,0A10,10,0,1,1,-10,0A10,10,0,1,1,10,0" fill="#e377c2" stroke="#fff"/><path transform="translate(315.7894736842105,720)" d="M10,0A10,10,0,1,1,-10,0A10,10,0,1,1,10,0" fill="#bcbd22" stroke="#fff"/><path transform="translate(442.10526315789474,320)" d="M10,0A10,10,0,1,1,-10,0A10,10,0,1,1,10,0" fill="#9467bd" stroke="#fff"/><path transform="translate(442.10526315789474,720)" d="M10,0A10,10,0,1,1,-10,0A10,10,0,1,1,10,0" fill="#bcbd22" stroke="#fff"/><path transform="translate(347.3684210526316,720)" d="M10,0A10,10,0,1,1,-10,0A10,10,0,1,1,10,0" fill="#bcbd22" stroke="#fff"/><path transform="translate(378.9473684210526,720)" d="M10,0A10,10,0,1,1,-10,0A10,10,0,1,1,10,0" fill="#bcbd22" stroke="#fff"/><path transform="translate(627.6315789473684,320)" d="M10,0A10,10,0,1,1,-10,0A10,10,0,1,1,10,0" fill="#9467bd" stroke="#fff"/><path transform="translate(521.0526315789474,480)" d="M10,0A10,10,0,1,1,-10,0A10,10,0,1,1,10,0" fill="#e377c2" stroke="#fff"/><path transform="translate(505.2631578947368,720)" d="M10,0A10,10,0,1,1,-10,0A10,10,0,1,1,10,0" fill="#bcbd22" stroke="#fff"/><path transform="translate(600,480)" d="M10,0A10,10,0,1,1,-10,0A10,10,0,1,1,10,0" fill="#e377c2" stroke="#fff"/><path transform="translate(536.8421052631579,720)" d="M10,0A10,10,0,1,1,-10,0A10,10,0,1,1,10,0" fill="#bcbd22" stroke="#fff"/><path transform="translate(600,720)" d="M10,0A10,10,0,1,1,-10,0A10,10,0,1,1,10,0" fill="#bcbd22" stroke="#fff"/><path transform="translate(663.1578947368422,480)" d="M10,0A10,10,0,1,1,-10,0A10,10,0,1,1,10,0" fill="#e377c2" stroke="#fff"/><path transform="translate(663.1578947368422,720)" d="M10,0A10,10,0,1,1,-10,0A10,10,0,1,1,10,0" fill="#bcbd22" stroke="#fff"/><path transform="translate(726.3157894736842,480)" d="M10,0A10,10,0,1,1,-10,0A10,10,0,1,1,10,0" fill="#e377c2" stroke="#fff"/><path transform="translate(726.3157894736842,560)" d="M10,0A10,10,0,1,1,-10,0A10,10,0,1,1,10,0" fill="#7f7f7f" stroke="#fff"/><path transform="translate(726.3157894736842,720)" d="M10,0A10,10,0,1,1,-10,0A10,10,0,1,1,10,0" fill="#bcbd22" stroke="#fff"/><path transform="translate(805.2631578947368,480)" d="M10,0A10,10,0,1,1,-10,0A10,10,0,1,1,10,0" fill="#e377c2" stroke="#fff"/><path transform="translate(789.4736842105264,720)" d="M10,0A10,10,0,1,1,-10,0A10,10,0,1,1,10,0" fill="#bcbd22" stroke="#fff"/><path transform="translate(821.0526315789474,720)" d="M10,0A10,10,0,1,1,-10,0A10,10,0,1,1,10,0" fill="#bcbd22" stroke="#fff"/><path transform="translate(931.578947368421,480)" d="M10,0A10,10,0,1,1,-10,0A10,10,0,1,1,10,0" fill="#e377c2" stroke="#fff"/><path transform="translate(1042.1052631578948,480)" d="M10,0A10,10,0,1,1,-10,0A10,10,0,1,1,10,0" fill="#e377c2" stroke="#fff"/><path transform="translate(884.2105263157895,720)" d="M10,0A10,10,0,1,1,-10,0A10,10,0,1,1,10,0" fill="#bcbd22" stroke="#fff"/><path transform="translate(915.7894736842105,720)" d="M10,0A10,10,0,1,1,-10,0A10,10,0,1,1,10,0" fill="#bcbd22" stroke="#fff"/><path transform="translate(947.3684210526316,720)" d="M10,0A10,10,0,1,1,-10,0A10,10,0,1,1,10,0" fill="#bcbd22" stroke="#fff"/><path transform="translate(978.9473684210526,720)" d="M10,0A10,10,0,1,1,-10,0A10,10,0,1,1,10,0" fill="#bcbd22" stroke="#fff"/><path transform="translate(1105.2631578947369,720)" d="M10,0A10,10,0,1,1,-10,0A10,10,0,1,1,10,0" fill="#bcbd22" stroke="#fff"/><path transform="translate(1136.842105263158,320)" d="M10,0A10,10,0,1,1,-10,0A10,10,0,1,1,10,0" fill="#9467bd" stroke="#fff"/><path transform="translate(1136.842105263158,720)" d="M10,0A10,10,0,1,1,-10,0A10,10,0,1,1,10,0" fill="#bcbd22" stroke="#fff"/><path transform="translate(1136.842105263158,480)" d="M10,0A10,10,0,1,1,-10,0A10,10,0,1,1,10,0" fill="#e377c2" stroke="#fff"/><path transform="translate(1168.421052631579,720)" d="M10,0A10,10,0,1,1,-10,0A10,10,0,1,1,10,0" fill="#bcbd22" stroke="#fff"/><path transform="translate(1042.1052631578948,720)" d="M10,0A10,10,0,1,1,-10,0A10,10,0,1,1,10,0" fill="#bcbd22" stroke="#fff"/><path transform="translate(1042.1052631578948,640)" d="M10,0A10,10,0,1,1,-10,0A10,10,0,1,1,10,0" fill="#17becf" stroke="#fff"/><path transform="translate(252.6315789473684,480)" d="M10,0A10,10,0,1,1,-10,0A10,10,0,1,1,10,0" fill="#e377c2" stroke="#fff"/></g><g class="mark-text role-mark" role="graphics-object" aria-roledescription="text mark container"><text text-anchor="middle" transform="translate(689.8026315789474,-15)" font-family="sans-serif" font-size="12px" fill="#000" opacity="1">Animaux</text><text text-anchor="middle" transform="translate(689.8026315789474,65)" font-family="sans-serif" font-size="12px" fill="#000" opacity="1">Chordés</text><text text-anchor="middle" transform="translate(689.8026315789474,145)" font-family="sans-serif" font-size="12px" fill="#000" opacity="1">Vertébrés</text><text text-anchor="middle" transform="translate(400.6578947368421,225)" font-family="sans-serif" font-size="12px" fill="#000" opacity="1">Mammifères</text><text text-anchor="middle" transform="translate(978.9473684210526,225)" font-family="sans-serif" font-size="12px" fill="#000" opacity="1">Oiseaux</text><text text-anchor="middle" transform="translate(185.5263157894737,305)" font-family="sans-serif" font-size="12px" fill="#000" opacity="1">Artiodactyles</text><text text-anchor="middle" transform="translate(118.42105263157895,385)" font-family="sans-serif" font-size="12px" fill="#000" opacity="1">Ruminants</text><text text-anchor="middle" transform="translate(63.1578947368421,465)" font-family="sans-serif" font-size="12px" fill="#000" opacity="1">Bovidés</text><text text-anchor="middle" transform="translate(63.1578947368421,545)" font-family="sans-serif" font-size="12px" fill="#000" opacity="1">Caprinés</text><text text-anchor="end" transform="translate(31.57894736842105,720) rotate(-55) translate(-15,7)" font-family="sans-serif" font-size="12px" fill="#000" opacity="1">Chamois / Isard</text><text text-anchor="end" transform="translate(63.1578947368421,720) rotate(-55) translate(-15,7)" font-family="sans-serif" font-size="12px" fill="#000" opacity="1">Bouquetin des Alpes</text><text text-anchor="middle" transform="translate(173.6842105263158,465)" font-family="sans-serif" font-size="12px" fill="#000" opacity="1">Cervidés</text><text text-anchor="end" transform="translate(157.89473684210526,720) rotate(-55) translate(-15,7)" font-family="sans-serif" font-size="12px" fill="#000" opacity="1">Cerf élaphe</text><text text-anchor="end" transform="translate(189.4736842105263,720) rotate(-55) translate(-15,7)" font-family="sans-serif" font-size="12px" fill="#000" opacity="1">Chevreuil</text><text text-anchor="end" transform="translate(94.73684210526315,720) rotate(-55) translate(-15,7)" font-family="sans-serif" font-size="12px" fill="#000" opacity="1">Mouflon</text><text text-anchor="end" transform="translate(252.6315789473684,720) rotate(-55) translate(-15,7)" font-family="sans-serif" font-size="12px" fill="#000" opacity="1">Sanglier</text><text text-anchor="middle" transform="translate(347.3684210526316,305)" font-family="sans-serif" font-size="12px" fill="#000" opacity="1">Rongeurs</text><text text-anchor="middle" transform="translate(347.3684210526316,465)" font-family="sans-serif" font-size="12px" fill="#000" opacity="1">Sciuridés</text><text text-anchor="end" transform="translate(315.7894736842105,720) rotate(-55) translate(-15,7)" font-family="sans-serif" font-size="12px" fill="#000" opacity="1">Marmotte</text><text text-anchor="middle" transform="translate(442.10526315789474,305)" font-family="sans-serif" font-size="12px" fill="#000" opacity="1">Lagomorphe</text><text text-anchor="end" transform="translate(442.10526315789474,720) rotate(-55) translate(-15,7)" font-family="sans-serif" font-size="12px" fill="#000" opacity="1">Lièvre variable</text><text text-anchor="end" transform="translate(347.3684210526316,720) rotate(-55) translate(-15,7)" font-family="sans-serif" font-size="12px" fill="#000" opacity="1">Écureuil</text><text text-anchor="end" transform="translate(378.9473684210526,720) rotate(-55) translate(-15,7)" font-family="sans-serif" font-size="12px" fill="#000" opacity="1">Hérisson</text><text text-anchor="middle" transform="translate(627.6315789473684,305)" font-family="sans-serif" font-size="12px" fill="#000" opacity="1">Carnivores</text><text text-anchor="middle" transform="translate(521.0526315789474,465)" font-family="sans-serif" font-size="12px" fill="#000" opacity="1">Mustelidés</text><text text-anchor="end" transform="translate(505.2631578947368,720) rotate(-55) translate(-15,7)" font-family="sans-serif" font-size="12px" fill="#000" opacity="1">Hermine</text><text text-anchor="middle" transform="translate(600,465)" font-family="sans-serif" font-size="12px" fill="#000" opacity="1">Canidés</text><text text-anchor="end" transform="translate(536.8421052631579,720) rotate(-55) translate(-15,7)" font-family="sans-serif" font-size="12px" fill="#000" opacity="1">Renard roux</text><text text-anchor="end" transform="translate(600,720) rotate(-55) translate(-15,7)" font-family="sans-serif" font-size="12px" fill="#000" opacity="1">Loup gris</text><text text-anchor="middle" transform="translate(663.1578947368422,465)" font-family="sans-serif" font-size="12px" fill="#000" opacity="1">Ursidé</text><text text-anchor="end" transform="translate(663.1578947368422,720) rotate(-55) translate(-15,7)" font-family="sans-serif" font-size="12px" fill="#000" opacity="1">Ours brun</text><text text-anchor="middle" transform="translate(726.3157894736842,465)" font-family="sans-serif" font-size="12px" fill="#000" opacity="1">Félidés</text><text text-anchor="middle" transform="translate(726.3157894736842,545)" font-family="sans-serif" font-size="12px" fill="#000" opacity="1">Félins</text><text text-anchor="end" transform="translate(726.3157894736842,720) rotate(-55) translate(-15,7)" font-family="sans-serif" font-size="12px" fill="#000" opacity="1">Lynx boréal</text><text text-anchor="middle" transform="translate(805.2631578947368,465)" font-family="sans-serif" font-size="12px" fill="#000" opacity="1">Accipitridés</text><text text-anchor="end" transform="translate(789.4736842105264,720) rotate(-55) translate(-15,7)" font-family="sans-serif" font-size="12px" fill="#000" opacity="1">Aigle royal</text><text text-anchor="end" transform="translate(821.0526315789474,720) rotate(-55) translate(-15,7)" font-family="sans-serif" font-size="12px" fill="#000" opacity="1">Gypaète barbu</text><text text-anchor="middle" transform="translate(931.578947368421,465)" font-family="sans-serif" font-size="12px" fill="#000" opacity="1">Strigidés</text><text text-anchor="middle" transform="translate(1042.1052631578948,465)" font-family="sans-serif" font-size="12px" fill="#000" opacity="1">Corvidés</text><text text-anchor="end" transform="translate(884.2105263157895,720) rotate(-55) translate(-15,7)" font-family="sans-serif" font-size="12px" fill="#000" opacity="1">Hibou grand duc</text><text text-anchor="end" transform="translate(915.7894736842105,720) rotate(-55) translate(-15,7)" font-family="sans-serif" font-size="12px" fill="#000" opacity="1">Chouette hulotte</text><text text-anchor="end" transform="translate(947.3684210526316,720) rotate(-55) translate(-15,7)" font-family="sans-serif" font-size="12px" fill="#000" opacity="1">Chouette hulotte</text><text text-anchor="end" transform="translate(978.9473684210526,720) rotate(-55) translate(-15,7)" font-family="sans-serif" font-size="12px" fill="#000" opacity="1">Chouette hulotte</text><text text-anchor="end" transform="translate(1105.2631578947369,720) rotate(-55) translate(-15,7)" font-family="sans-serif" font-size="12px" fill="#000" opacity="1">Grand Tétras</text><text text-anchor="middle" transform="translate(1136.842105263158,305)" font-family="sans-serif" font-size="12px" fill="#000" opacity="1">gallinacés</text><text text-anchor="end" transform="translate(1136.842105263158,720) rotate(-55) translate(-15,7)" font-family="sans-serif" font-size="12px" fill="#000" opacity="1">Perdrix grise</text><text text-anchor="middle" transform="translate(1136.842105263158,465)" font-family="sans-serif" font-size="12px" fill="#000" opacity="1">phasianidés</text><text text-anchor="end" transform="translate(1168.421052631579,720) rotate(-55) translate(-15,7)" font-family="sans-serif" font-size="12px" fill="#000" opacity="1">Lagopède alpin</text><text text-anchor="end" transform="translate(1042.1052631578948,720) rotate(-55) translate(-15,7)" font-family="sans-serif" font-size="12px" fill="#000" opacity="1">Chocard à bec jaune</text><text text-anchor="middle" transform="translate(1042.1052631578948,625)" font-family="sans-serif" font-size="12px" fill="#000" opacity="1">Corbeaux</text><text text-anchor="middle" transform="translate(252.6315789473684,465)" font-family="sans-serif" font-size="12px" fill="#000" opacity="1">Porcins</text></g><g class="mark-group role-legend" role="graphics-symbol" aria-roledescription="legend" aria-label="Symbol legend titled 'Classification' for fill color with 10 values: Règne, Embranchement, Sous-embranchement, Classe, Ordre, ending with Genre"><g transform="translate(18,18)"><path class="background" aria-hidden="true" d="M0,0h224v234h-224Z" pointer-events="none"/><g><g class="mark-group role-legend-entry"><g transform="translate(1,35)"><path class="background" aria-hidden="true" d="M0,0h0v0h0Z" pointer-events="none"/><g><g class="mark-group role-scope" role="graphics-object" aria-roledescription="group mark container"><g transform="translate(0,0)"><path class="background" aria-hidden="true" d="M0,0h221.1041717529297v18h-221.1041717529297Z" pointer-events="none" opacity="1"/><g><g class="mark-symbol role-legend-symbol" pointer-events="none"><path transform="translate(9,9)" d="M-7.0710678118654755,-7.0710678118654755h14.142135623730951v14.142135623730951h-14.142135623730951Z" fill="#1f77b4" fill-opacity="1" stroke-width="1.5" opacity="1"/></g><g class="mark-text role-legend-label" pointer-events="none"><text text-anchor="start" transform="translate(22,14)" font-family="sans-serif" font-size="18px" fill="#333" opacity="1">Règne</text></g></g><path class="foreground" aria-hidden="true" d="" pointer-events="none" display="none"/></g><g transform="translate(0,20)"><path class="background" aria-hidden="true" d="M0,0h221.1041717529297v18h-221.1041717529297Z" pointer-events="none" opacity="1"/><g><g class="mark-symbol role-legend-symbol" pointer-events="none"><path transform="translate(9,9)" d="M-7.0710678118654755,-7.0710678118654755h14.142135623730951v14.142135623730951h-14.142135623730951Z" fill="#ff7f0e" fill-opacity="1" stroke-width="1.5" opacity="1"/></g><g class="mark-text role-legend-label" pointer-events="none"><text text-anchor="start" transform="translate(22,14)" font-family="sans-serif" font-size="18px" fill="#333" opacity="1">Embranchement</text></g></g><path class="foreground" aria-hidden="true" d="" pointer-events="none" display="none"/></g><g transform="translate(0,40)"><path class="background" aria-hidden="true" d="M0,0h221.1041717529297v18h-221.1041717529297Z" pointer-events="none" opacity="1"/><g><g class="mark-symbol role-legend-symbol" pointer-events="none"><path transform="translate(9,9)" d="M-7.0710678118654755,-7.0710678118654755h14.142135623730951v14.142135623730951h-14.142135623730951Z" fill="#2ca02c" fill-opacity="1" stroke-width="1.5" opacity="1"/></g><g class="mark-text role-legend-label" pointer-events="none"><text text-anchor="start" transform="translate(22,14)" font-family="sans-serif" font-size="18px" fill="#333" opacity="1">Sous-embranchement</text></g></g><path class="foreground" aria-hidden="true" d="" pointer-events="none" display="none"/></g><g transform="translate(0,60)"><path class="background" aria-hidden="true" d="M0,0h221.1041717529297v18h-221.1041717529297Z" pointer-events="none" opacity="1"/><g><g class="mark-symbol role-legend-symbol" pointer-events="none"><path transform="translate(9,9)" d="M-7.0710678118654755,-7.0710678118654755h14.142135623730951v14.142135623730951h-14.142135623730951Z" fill="#d62728" fill-opacity="1" stroke-width="1.5" opacity="1"/></g><g class="mark-text role-legend-label" pointer-events="none"><text text-anchor="start" transform="translate(22,14)" font-family="sans-serif" font-size="18px" fill="#333" opacity="1">Classe</text></g></g><path class="foreground" aria-hidden="true" d="" pointer-events="none" display="none"/></g><g transform="translate(0,80)"><path class="background" aria-hidden="true" d="M0,0h221.1041717529297v18h-221.1041717529297Z" pointer-events="none" opacity="1"/><g><g class="mark-symbol role-legend-symbol" pointer-events="none"><path transform="translate(9,9)" d="M-7.0710678118654755,-7.0710678118654755h14.142135623730951v14.142135623730951h-14.142135623730951Z" fill="#9467bd" fill-opacity="1" stroke-width="1.5" opacity="1"/></g><g class="mark-text role-legend-label" pointer-events="none"><text text-anchor="start" transform="translate(22,14)" font-family="sans-serif" font-size="18px" fill="#333" opacity="1">Ordre</text></g></g><path class="foreground" aria-hidden="true" d="" pointer-events="none" display="none"/></g><g transform="translate(0,100)"><path class="background" aria-hidden="true" d="M0,0h221.1041717529297v18h-221.1041717529297Z" pointer-events="none" opacity="1"/><g><g class="mark-symbol role-legend-symbol" pointer-events="none"><path transform="translate(9,9)" d="M-7.0710678118654755,-7.0710678118654755h14.142135623730951v14.142135623730951h-14.142135623730951Z" fill="#8c564b" fill-opacity="1" stroke-width="1.5" opacity="1"/></g><g class="mark-text role-legend-label" pointer-events="none"><text text-anchor="start" transform="translate(22,14)" font-family="sans-serif" font-size="18px" fill="#333" opacity="1">Sous-ordre</text></g></g><path class="foreground" aria-hidden="true" d="" pointer-events="none" display="none"/></g><g transform="translate(0,120)"><path class="background" aria-hidden="true" d="M0,0h221.1041717529297v18h-221.1041717529297Z" pointer-events="none" opacity="1"/><g><g class="mark-symbol role-legend-symbol" pointer-events="none"><path transform="translate(9,9)" d="M-7.0710678118654755,-7.0710678118654755h14.142135623730951v14.142135623730951h-14.142135623730951Z" fill="#e377c2" fill-opacity="1" stroke-width="1.5" opacity="1"/></g><g class="mark-text role-legend-label" pointer-events="none"><text text-anchor="start" transform="translate(22,14)" font-family="sans-serif" font-size="18px" fill="#333" opacity="1">Famille</text></g></g><path class="foreground" aria-hidden="true" d="" pointer-events="none" display="none"/></g><g transform="translate(0,140)"><path class="background" aria-hidden="true" d="M0,0h221.1041717529297v18h-221.1041717529297Z" pointer-events="none" opacity="1"/><g><g class="mark-symbol role-legend-symbol" pointer-events="none"><path transform="translate(9,9)" d="M-7.0710678118654755,-7.0710678118654755h14.142135623730951v14.142135623730951h-14.142135623730951Z" fill="#7f7f7f" fill-opacity="1" stroke-width="1.5" opacity="1"/></g><g class="mark-text role-legend-label" pointer-events="none"><text text-anchor="start" transform="translate(22,14)" font-family="sans-serif" font-size="18px" fill="#333" opacity="1">Sous-famille</text></g></g><path class="foreground" aria-hidden="true" d="" pointer-events="none" display="none"/></g><g transform="translate(0,160)"><path class="background" aria-hidden="true" d="M0,0h221.1041717529297v18h-221.1041717529297Z" pointer-events="none" opacity="1"/><g><g class="mark-symbol role-legend-symbol" pointer-events="none"><path transform="translate(9,9)" d="M-7.0710678118654755,-7.0710678118654755h14.142135623730951v14.142135623730951h-14.142135623730951Z" fill="#17becf" fill-opacity="1" stroke-width="1.5" opacity="1"/></g><g class="mark-text role-legend-label" pointer-events="none"><text text-anchor="start" transform="translate(22,14)" font-family="sans-serif" font-size="18px" fill="#333" opacity="1">Genre</text></g></g><path class="foreground" aria-hidden="true" d="" pointer-events="none" display="none"/></g><g transform="translate(0,180)"><path class="background" aria-hidden="true" d="M0,0h221.1041717529297v18h-221.1041717529297Z" pointer-events="none" opacity="1"/><g><g class="mark-symbol role-legend-symbol" pointer-events="none"><path transform="translate(9,9)" d="M-7.0710678118654755,-7.0710678118654755h14.142135623730951v14.142135623730951h-14.142135623730951Z" fill="#bcbd22" fill-opacity="1" stroke-width="1.5" opacity="1"/></g><g class="mark-text role-legend-label" pointer-events="none"><text text-anchor="start" transform="translate(22,14)" font-family="sans-serif" font-size="18px" fill="#333" opacity="1">Espèce</text></g></g><path class="foreground" aria-hidden="true" d="" pointer-events="none" display="none"/></g></g></g><path class="foreground" aria-hidden="true" d="" pointer-events="none" display="none"/></g></g><g class="mark-text role-legend-title" pointer-events="none"><text text-anchor="start" transform="translate(1,20)" font-family="sans-serif" font-size="24px" font-weight="bold" fill="#333" opacity="1">Classification</text></g></g><path class="foreground" aria-hidden="true" d="" pointer-events="none" display="none"/></g></g></g><path class="foreground" aria-hidden="true" d="" display="none"/></g></g></g></svg>