<svg xmlns="http://www.w3.org/2000/svg" xmlns:xlink="http://www.w3.org/1999/xlink" version="1.1" class="marks" width="1595" height="1635" viewBox="0 0 1595 1635"><g fill="none" stroke-miterlimit="10" transform="translate(24,30)"><g class="mark-group role-frame root" role="graphics-object" aria-roledescription="group mark container"><g transform="translate(0,0)"><path class="background" aria-hidden="true" d="M0,0h600v1600h-600Z"/><g><g class="mark-path role-mark" role="graphics-symbol" aria-roledescription="path mark container"><path transform="translate(0,0)" d="M881.4285714285714,0C881.4285714285714,50 881.4285714285714,50 881.4285714285714,100" stroke="#ccc"/><path transform="translate(0,0)" d="M881.4285714285714,100C881.4285714285714,150 881.4285714285714,150 881.4285714285714,200" stroke="#ccc"/><path transform="translate(0,0)" d="M881.4285714285714,200C881.4285714285714,250 494.2857142857143,250 494.2857142857143,300" stroke="#ccc"/><path transform="translate(0,0)" d="M881.4285714285714,200C881.4285714285714,250 1268.5714285714287,250 1268.5714285714287,300" stroke="#ccc"/><path transform="translate(0,0)" d="M494.2857142857143,300C494.2857142857143,350 222.85714285714286,350 222.85714285714286,400" stroke="#ccc"/><path transform="translate(0,0)" d="M494.2857142857143,300C494.2857142857143,350 434.2857142857143,350 434.2857142857143,400" stroke="#ccc"/><path transform="translate(0,0)" d="M494.2857142857143,300C494.2857142857143,350 525.7142857142858,350 525.7142857142858,400" stroke="#ccc"/><path transform="translate(0,0)" d="M494.2857142857143,300C494.2857142857143,350 765.7142857142858,350 765.7142857142858,400" stroke="#ccc"/><path transform="translate(0,0)" d="M1268.5714285714287,300C1268.5714285714287,450 1028.5714285714287,450 1028.5714285714287,600" stroke="#ccc"/><path transform="translate(0,0)" d="M1268.5714285714287,300C1268.5714285714287,450 1211.4285714285716,450 1211.4285714285716,600" stroke="#ccc"/><path transform="translate(0,0)" d="M1268.5714285714287,300C1268.5714285714287,450 1371.4285714285716,450 1371.4285714285716,600" stroke="#ccc"/><path transform="translate(0,0)" d="M1268.5714285714287,300C1268.5714285714287,350 1508.5714285714287,350 1508.5714285714287,400" stroke="#ccc"/><path transform="translate(0,0)" d="M222.85714285714286,400C222.85714285714286,450 148.57142857142858,450 148.57142857142858,500" stroke="#ccc"/><path transform="translate(0,0)" d="M222.85714285714286,400C222.85714285714286,500 297.14285714285717,500 297.14285714285717,600" stroke="#ccc"/><path transform="translate(0,0)" d="M434.2857142857143,400C434.2857142857143,500 434.2857142857143,500 434.2857142857143,600" stroke="#ccc"/><path transform="translate(0,0)" d="M525.7142857142858,400C525.7142857142858,650 525.7142857142858,650 525.7142857142858,900" stroke="#ccc"/><path transform="translate(0,0)" d="M765.7142857142858,400C765.7142857142858,500 617.1428571428571,500 617.1428571428571,600" stroke="#ccc"/><path transform="translate(0,0)" d="M765.7142857142858,400C765.7142857142858,500 731.4285714285714,500 731.4285714285714,600" stroke="#ccc"/><path transform="translate(0,0)" d="M765.7142857142858,400C765.7142857142858,500 822.8571428571429,500 822.8571428571429,600" stroke="#ccc"/><path transform="translate(0,0)" d="M765.7142857142858,400C765.7142857142858,500 914.2857142857143,500 914.2857142857143,600" stroke="#ccc"/><path transform="translate(0,0)" d="M1028.5714285714287,600C1028.5714285714287,750 1005.7142857142858,750 1005.7142857142858,900" stroke="#ccc"/><path transform="translate(0,0)" d="M1028.5714285714287,600C1028.5714285714287,750 1051.4285714285716,750 1051.4285714285716,900" stroke="#ccc"/><path transform="translate(0,0)" d="M1211.4285714285716,600C1211.4285714285716,750 1142.857142857143,750 1142.857142857143,900" stroke="#ccc"/><path transform="translate(0,0)" d="M1211.4285714285716,600C1211.4285714285716,750 1188.5714285714287,750 1188.5714285714287,900" stroke="#ccc"/><path transform="translate(0,0)" d="M1211.4285714285716,600C1211.4285714285716,750 1234.2857142857142,750 1234.2857142857142,900" stroke="#ccc"/><path transform="translate(0,0)" d="M1211.4285714285716,600C1211.4285714285716,750 1280,750 1280,900" stroke="#ccc"/><path transform="translate(0,0)" d="M1371.4285714285716,600C1371.4285714285716,700 1371.4285714285716,700 1371.4285714285716,800" stroke="#ccc"/><path transform="translate(0,0)" d="M1508.5714285714287,400C1508.5714285714287,500 1508.5714285714287,500 1508.5714285714287,600" stroke="#ccc"/><path transform="translate(0,0)" d="M148.57142857142858,500C148.57142857142858,550 91.42857142857143,550 91.42857142857143,600" stroke="#ccc"/><path transform="translate(0,0)" d="M148.57142857142858,500C148.57142857142858,550 205.71428571428572,550 205.71428571428572,600" stroke="#ccc"/><path transform="translate(0,0)" d="M297.14285714285717,600C297.14285714285717,750 297.14285714285717,750 297.14285714285717,900" stroke="#ccc"/><path transform="translate(0,0)" d="M434.2857142857143,600C434.2857142857143,750 388.57142857142856,750 388.57142857142856,900" stroke="#ccc"/><path transform="translate(0,0)" d="M434.2857142857143,600C434.2857142857143,750 434.2857142857143,750 434.2857142857143,900" stroke="#ccc"/><path transform="translate(0,0)" d="M434.2857142857143,600C434.2857142857143,750 480,750 480,900" stroke="#ccc"/><path transform="translate(0,0)" d="M617.1428571428571,600C617.1428571428571,750 594.2857142857143,750 594.2857142857143,900" stroke="#ccc"/><path transform="translate(0,0)" d="M617.1428571428571,600C617.1428571428571,750 640,750 640,900" stroke="#ccc"/><path transform="translate(0,0)" d="M731.4285714285714,600C731.4285714285714,750 731.4285714285714,750 731.4285714285714,900" stroke="#ccc"/><path transform="translate(0,0)" d="M822.8571428571429,600C822.8571428571429,750 822.8571428571429,750 822.8571428571429,900" stroke="#ccc"/><path transform="translate(0,0)" d="M914.2857142857143,600C914.2857142857143,650 914.2857142857143,650 914.2857142857143,700" stroke="#ccc"/><path transform="translate(0,0)" d="M1371.4285714285716,800C1371.4285714285716,850 1371.4285714285716,850 1371.4285714285716,900" stroke="#ccc"/><path transform="translate(0,0)" d="M1508.5714285714287,600C1508.5714285714287,750 1462.857142857143,750 1462.857142857143,900" stroke="#ccc"/><path transform="translate(0,0)" d="M1508.5714285714287,600C1508.5714285714287,750 1508.5714285714287,750 1508.5714285714287,900" stroke="#ccc"/><path transform="translate(0,0)" d="M1508.5714285714287,600C1508.5714285714287,750 1554.2857142857142,750 1554.2857142857142,900" stroke="#ccc"/><path transform="translate(0,0)" d="M91.42857142857143,600C91.42857142857143,650 91.42857142857143,650 91.42857142857143,700" stroke="#ccc"/><path transform="translate(0,0)" d="M205.71428571428572,600C205.71428571428572,750 182.85714285714286,750 182.85714285714286,900" stroke="#ccc"/><path transform="translate(0,0)" d="M205.71428571428572,600C205.71428571428572,750 228.57142857142858,750 228.57142857142858,900" stroke="#ccc"/><path transform="translate(0,0)" d="M914.2857142857143,700C914.2857142857143,800 914.2857142857143,800 914.2857142857143,900" stroke="#ccc"/><path transform="translate(0,0)" d="M91.42857142857143,700C91.42857142857143,800 45.714285714285715,800 45.714285714285715,900" stroke="#ccc"/><path transform="translate(0,0)" d="M91.42857142857143,700C91.42857142857143,800 91.42857142857143,800 91.42857142857143,900" stroke="#ccc"/><path transform="translate(0,0)" d="M91.42857142857143,700C91.42857142857143,800 137.14285714285714,800 137.14285714285714,900" stroke="#ccc"/></g><g class="mark-symbol role-mark" role="graphics-symbol" aria-roledescription="symbol mark container"><path transform="translate(881.4285714285714,0)" d="M10,0A10,10,0,1,1,-10,0A10,10,0,1,1,10,0" fill="#1f77b4" stroke="#fff"/><path transform="translate(881.4285714285714,100)" d="M10,0A10,10,0,1,1,-10,0A10,10,0,1,1,10,0" fill="#ff7f0e" stroke="#fff"/><path transform="translate(881.4285714285714,200)" d="M10,0A10,10,0,1,1,-10,0A10,10,0,1,1,10,0" fill="#2ca02c" stroke="#fff"/><path transform="translate(494.2857142857143,300)" d="M10,0A10,10,0,1,1,-10,0A10,10,0,1,1,10,0" fill="#d62728" stroke="#fff"/><path transform="translate(1268.5714285714287,300)" d="M10,0A10,10,0,1,1,-10,0A10,10,0,1,1,10,0" fill="#d62728" stroke="#fff"/><path transform="translate(222.85714285714286,400)" d="M10,0A10,10,0,1,1,-10,0A10,10,0,1,1,10,0" fill="#9467bd" stroke="#fff"/><path transform="translate(148.57142857142858,500)" d="M10,0A10,10,0,1,1,-10,0A10,10,0,1,1,10,0" fill="#8c564b" stroke="#fff"/><path transform="translate(91.42857142857143,600)" d="M10,0A10,10,0,1,1,-10,0A10,10,0,1,1,10,0" fill="#e377c2" stroke="#fff"/><path transform="translate(91.42857142857143,700)" d="M10,0A10,10,0,1,1,-10,0A10,10,0,1,1,10,0" fill="#7f7f7f" stroke="#fff"/><path transform="translate(45.714285714285715,900)" d="M10,0A10,10,0,1,1,-10,0A10,10,0,1,1,10,0" fill="#bcbd22" stroke="#fff"/><path transform="translate(91.42857142857143,900)" d="M10,0A10,10,0,1,1,-10,0A10,10,0,1,1,10,0" fill="#bcbd22" stroke="#fff"/><path transform="translate(205.71428571428572,600)" d="M10,0A10,10,0,1,1,-10,0A10,10,0,1,1,10,0" fill="#e377c2" stroke="#fff"/><path transform="translate(182.85714285714286,900)" d="M10,0A10,10,0,1,1,-10,0A10,10,0,1,1,10,0" fill="#bcbd22" stroke="#fff"/><path transform="translate(228.57142857142858,900)" d="M10,0A10,10,0,1,1,-10,0A10,10,0,1,1,10,0" fill="#bcbd22" stroke="#fff"/><path transform="translate(137.14285714285714,900)" d="M10,0A10,10,0,1,1,-10,0A10,10,0,1,1,10,0" fill="#bcbd22" stroke="#fff"/><path transform="translate(297.14285714285717,900)" d="M10,0A10,10,0,1,1,-10,0A10,10,0,1,1,10,0" fill="#bcbd22" stroke="#fff"/><path transform="translate(434.2857142857143,400)" d="M10,0A10,10,0,1,1,-10,0A10,10,0,1,1,10,0" fill="#9467bd" stroke="#fff"/><path transform="translate(434.2857142857143,600)" d="M10,0A10,10,0,1,1,-10,0A10,10,0,1,1,10,0" fill="#e377c2" stroke="#fff"/><path transform="translate(388.57142857142856,900)" d="M10,0A10,10,0,1,1,-10,0A10,10,0,1,1,10,0" fill="#bcbd22" stroke="#fff"/><path transform="translate(525.7142857142858,400)" d="M10,0A10,10,0,1,1,-10,0A10,10,0,1,1,10,0" fill="#9467bd" stroke="#fff"/><path transform="translate(525.7142857142858,900)" d="M10,0A10,10,0,1,1,-10,0A10,10,0,1,1,10,0" fill="#bcbd22" stroke="#fff"/><path transform="translate(434.2857142857143,900)" d="M10,0A10,10,0,1,1,-10,0A10,10,0,1,1,10,0" fill="#bcbd22" stroke="#fff"/><path transform="translate(480,900)" d="M10,0A10,10,0,1,1,-10,0A10,10,0,1,1,10,0" fill="#bcbd22" stroke="#fff"/><path transform="translate(765.7142857142858,400)" d="M10,0A10,10,0,1,1,-10,0A10,10,0,1,1,10,0" fill="#9467bd" stroke="#fff"/><path transform="translate(617.1428571428571,600)" d="M10,0A10,10,0,1,1,-10,0A10,10,0,1,1,10,0" fill="#e377c2" stroke="#fff"/><path transform="translate(594.2857142857143,900)" d="M10,0A10,10,0,1,1,-10,0A10,10,0,1,1,10,0" fill="#bcbd22" stroke="#fff"/><path transform="translate(731.4285714285714,600)" d="M10,0A10,10,0,1,1,-10,0A10,10,0,1,1,10,0" fill="#e377c2" stroke="#fff"/><path transform="translate(640,900)" d="M10,0A10,10,0,1,1,-10,0A10,10,0,1,1,10,0" fill="#bcbd22" stroke="#fff"/><path transform="translate(731.4285714285714,900)" d="M10,0A10,10,0,1,1,-10,0A10,10,0,1,1,10,0" fill="#bcbd22" stroke="#fff"/><path transform="translate(822.8571428571429,600)" d="M10,0A10,10,0,1,1,-10,0A10,10,0,1,1,10,0" fill="#e377c2" stroke="#fff"/><path transform="translate(822.8571428571429,900)" d="M10,0A10,10,0,1,1,-10,0A10,10,0,1,1,10,0" fill="#bcbd22" stroke="#fff"/><path transform="translate(914.2857142857143,600)" d="M10,0A10,10,0,1,1,-10,0A10,10,0,1,1,10,0" fill="#e377c2" stroke="#fff"/><path transform="translate(914.2857142857143,700)" d="M10,0A10,10,0,1,1,-10,0A10,10,0,1,1,10,0" fill="#7f7f7f" stroke="#fff"/><path transform="translate(914.2857142857143,900)" d="M10,0A10,10,0,1,1,-10,0A10,10,0,1,1,10,0" fill="#bcbd22" stroke="#fff"/><path transform="translate(1028.5714285714287,600)" d="M10,0A10,10,0,1,1,-10,0A10,10,0,1,1,10,0" fill="#e377c2" stroke="#fff"/><path transform="translate(1005.7142857142858,900)" d="M10,0A10,10,0,1,1,-10,0A10,10,0,1,1,10,0" fill="#bcbd22" stroke="#fff"/><path transform="translate(1051.4285714285716,900)" d="M10,0A10,10,0,1,1,-10,0A10,10,0,1,1,10,0" fill="#bcbd22" stroke="#fff"/><path transform="translate(1211.4285714285716,600)" d="M10,0A10,10,0,1,1,-10,0A10,10,0,1,1,10,0" fill="#e377c2" stroke="#fff"/><path transform="translate(1371.4285714285716,600)" d="M10,0A10,10,0,1,1,-10,0A10,10,0,1,1,10,0" fill="#e377c2" stroke="#fff"/><path transform="translate(1142.857142857143,900)" d="M10,0A10,10,0,1,1,-10,0A10,10,0,1,1,10,0" fill="#bcbd22" stroke="#fff"/><path transform="translate(1188.5714285714287,900)" d="M10,0A10,10,0,1,1,-10,0A10,10,0,1,1,10,0" fill="#bcbd22" stroke="#fff"/><path transform="translate(1234.2857142857142,900)" d="M10,0A10,10,0,1,1,-10,0A10,10,0,1,1,10,0" fill="#bcbd22" stroke="#fff"/><path transform="translate(1280,900)" d="M10,0A10,10,0,1,1,-10,0A10,10,0,1,1,10,0" fill="#bcbd22" stroke="#fff"/><path transform="translate(1462.857142857143,900)" d="M10,0A10,10,0,1,1,-10,0A10,10,0,1,1,10,0" fill="#bcbd22" stroke="#fff"/><path transform="translate(1508.5714285714287,400)" d="M10,0A10,10,0,1,1,-10,0A10,10,0,1,1,10,0" fill="#9467bd" stroke="#fff"/><path transform="translate(1508.5714285714287,900)" d="M10,0A10,10,0,1,1,-10,0A10,10,0,1,1,10,0" fill="#bcbd22" stroke="#fff"/><path transform="translate(1508.5714285714287,600)" d="M10,0A10,10,0,1,1,-10,0A10,10,0,1,1,10,0" fill="#e377c2" stroke="#fff"/><path transform="translate(1554.2857142857142,900)" d="M10,0A10,10,0,1,1,-10,0A10,10,0,1,1,10,0" fill="#bcbd22" stroke="#fff"/><path transform="translate(1371.4285714285716,900)" d="M10,0A10,10,0,1,1,-10,0A10,10,0,1,1,10,0" fill="#bcbd22" stroke="#fff"/><path transform="translate(1371.4285714285716,800)" d="M10,0A10,10,0,1,1,-10,0A10,10,0,1,1,10,0" fill="#17becf" stroke="#fff"/><path transform="translate(297.14285714285717,600)" d="M10,0A10,10,0,1,1,-10,0A10,10,0,1,1,10,0" fill="#e377c2" stroke="#fff"/></g><g class="mark-text role-mark" role="graphics-object" aria-roledescription="text mark container"><text text-anchor="middle" transform="translate(881.4285714285714,-15)" font-family="sans-serif" font-size="12px" fill="#000" opacity="1">Animaux</text><text text-anchor="middle" transform="translate(881.4285714285714,85)" font-family="sans-serif" font-size="12px" fill="#000" opacity="1">Chordés</text><text text-anchor="middle" transform="translate(881.4285714285714,185)" font-family="sans-serif" font-size="12px" fill="#000" opacity="1">Vertébrés</text><text text-anchor="middle" transform="translate(494.2857142857143,285)" font-family="sans-serif" font-size="12px" fill="#000" opacity="1">Mammifères</text><text text-anchor="middle" transform="translate(1268.5714285714287,285)" font-family="sans-serif" font-size="12px" fill="#000" opacity="1">Oiseaux</text><text text-anchor="middle" transform="translate(222.85714285714286,385)" font-family="sans-serif" font-size="12px" fill="#000" opacity="1">Artiodactyles</text><text text-anchor="middle" transform="translate(148.57142857142858,485)" font-family="sans-serif" font-size="12px" fill="#000" opacity="1">Ruminants</text><text text-anchor="middle" transform="translate(91.42857142857143,585)" font-family="sans-serif" font-size="12px" fill="#000" opacity="1">Bovidés</text><text text-anchor="middle" transform="translate(91.42857142857143,685)" font-family="sans-serif" font-size="12px" fill="#000" opacity="1">Caprinés</text><text text-anchor="end" transform="translate(45.714285714285715,900) rotate(-55) translate(-15,7)" font-family="sans-serif" font-size="12px" fill="#000" opacity="1">Chamois / Isard</text><text text-anchor="end" transform="translate(91.42857142857143,900) rotate(-55) translate(-15,7)" font-family="sans-serif" font-size="12px" fill="#000" opacity="1">Bouquetin des Alpes</text><text text-anchor="middle" transform="translate(205.71428571428572,585)" font-family="sans-serif" font-size="12px" fill="#000" opacity="1">Cervidés</text><text text-anchor="end" transform="translate(182.85714285714286,900) rotate(-55) translate(-15,7)" font-family="sans-serif" font-size="12px" fill="#000" opacity="1">Cerf élaphe</text><text text-anchor="end" transform="translate(228.57142857142858,900) rotate(-55) translate(-15,7)" font-family="sans-serif" font-size="12px" fill="#000" opacity="1">Chevreuil</text><text text-anchor="end" transform="translate(137.14285714285714,900) rotate(-55) translate(-15,7)" font-family="sans-serif" font-size="12px" fill="#000" opacity="1">Mouflon</text><text text-anchor="end" transform="translate(297.14285714285717,900) rotate(-55) translate(-15,7)" font-family="sans-serif" font-size="12px" fill="#000" opacity="1">Sanglier</text><text text-anchor="middle" transform="translate(434.2857142857143,385)" font-family="sans-serif" font-size="12px" fill="#000" opacity="1">Rongeurs</text><text text-anchor="middle" transform="translate(434.2857142857143,585)" font-family="sans-serif" font-size="12px" fill="#000" opacity="1">Sciuridés</text><text text-anchor="end" transform="translate(388.57142857142856,900) rotate(-55) translate(-15,7)" font-family="sans-serif" font-size="12px" fill="#000" opacity="1">Marmotte</text><text text-anchor="middle" transform="translate(525.7142857142858,385)" font-family="sans-serif" font-size="12px" fill="#000" opacity="1">Lagomorphe</text><text text-anchor="end" transform="translate(525.7142857142858,900) rotate(-55) translate(-15,7)" font-family="sans-serif" font-size="12px" fill="#000" opacity="1">Lièvre variable</text><text text-anchor="end" transform="translate(434.2857142857143,900) rotate(-55) translate(-15,7)" font-family="sans-serif" font-size="12px" fill="#000" opacity="1">Écureuil</text><text text-anchor="end" transform="translate(480,900) rotate(-55) translate(-15,7)" font-family="sans-serif" font-size="12px" fill="#000" opacity="1">Hérisson</text><text text-anchor="middle" transform="translate(765.7142857142858,385)" font-family="sans-serif" font-size="12px" fill="#000" opacity="1">Carnivores</text><text text-anchor="middle" transform="translate(617.1428571428571,585)" font-family="sans-serif" font-size="12px" fill="#000" opacity="1">Mustelidés</text><text text-anchor="end" transform="translate(594.2857142857143,900) rotate(-55) translate(-15,7)" font-family="sans-serif" font-size="12px" fill="#000" opacity="1">Hermine</text><text text-anchor="middle" transform="translate(731.4285714285714,585)" font-family="sans-serif" font-size="12px" fill="#000" opacity="1">Canidés</text><text text-anchor="end" transform="translate(640,900) rotate(-55) translate(-15,7)" font-family="sans-serif" font-size="12px" fill="#000" opacity="1">Renard roux</text><text text-anchor="end" transform="translate(731.4285714285714,900) rotate(-55) translate(-15,7)" font-family="sans-serif" font-size="12px" fill="#000" opacity="1">Loup gris</text><text text-anchor="middle" transform="translate(822.8571428571429,585)" font-family="sans-serif" font-size="12px" fill="#000" opacity="1">Ursidé</text><text text-anchor="end" transform="translate(822.8571428571429,900) rotate(-55) translate(-15,7)" font-family="sans-serif" font-size="12px" fill="#000" opacity="1">Ours brun</text><text text-anchor="middle" transform="translate(914.2857142857143,585)" font-family="sans-serif" font-size="12px" fill="#000" opacity="1">Félidés</text><text text-anchor="middle" transform="translate(914.2857142857143,685)" font-family="sans-serif" font-size="12px" fill="#000" opacity="1">Félins</text><text text-anchor="end" transform="translate(914.2857142857143,900) rotate(-55) translate(-15,7)" font-family="sans-serif" font-size="12px" fill="#000" opacity="1">Lynx boréal</text><text text-anchor="middle" transform="translate(1028.5714285714287,585)" font-family="sans-serif" font-size="12px" fill="#000" opacity="1">Accipitridés</text><text text-anchor="end" transform="translate(1005.7142857142858,900) rotate(-55) translate(-15,7)" font-family="sans-serif" font-size="12px" fill="#000" opacity="1">Aigle royal</text><text text-anchor="end" transform="translate(1051.4285714285716,900) rotate(-55) translate(-15,7)" font-family="sans-serif" font-size="12px" fill="#000" opacity="1">Gypaète barbu</text><text text-anchor="middle" transform="translate(1211.4285714285716,585)" font-family="sans-serif" font-size="12px" fill="#000" opacity="1">Strigidés</text><text text-anchor="middle" transform="translate(1371.4285714285716,585)" font-family="sans-serif" font-size="12px" fill="#000" opacity="1">Corvidés</text><text text-anchor="end" transform="translate(1142.857142857143,900) rotate(-55) translate(-15,7)" font-family="sans-serif" font-size="12px" fill="#000" opacity="1">Hibou grand duc</text><text text-anchor="end" transform="translate(1188.5714285714287,900) rotate(-55) translate(-15,7)" font-family="sans-serif" font-size="12px" fill="#000" opacity="1">Chouette hulotte</text><text text-anchor="end" transform="translate(1234.2857142857142,900) rotate(-55) translate(-15,7)" font-family="sans-serif" font-size="12px" fill="#000" opacity="1">Chouette hulotte</text><text text-anchor="end" transform="translate(1280,900) rotate(-55) translate(-15,7)" font-family="sans-serif" font-size="12px" fill="#000" opacity="1">Chouette hulotte</text><text text-anchor="end" transform="translate(1462.857142857143,900) rotate(-55) translate(-15,7)" font-family="sans-serif" font-size="12px" fill="#000" opacity="1">Grand Tétras</text><text text-anchor="middle" transform="translate(1508.5714285714287,385)" font-family="sans-serif" font-size="12px" fill="#000" opacity="1">gallinacés</text><text text-anchor="end" transform="translate(1508.5714285714287,900) rotate(-55) translate(-15,7)" font-family="sans-serif" font-size="12px" fill="#000" opacity="1">Perdrix grise</text><text text-anchor="middle" transform="translate(1508.5714285714287,585)" font-family="sans-serif" font-size="12px" fill="#000" opacity="1">phasianidés</text><text text-anchor="end" transform="translate(1554.2857142857142,900) rotate(-55) translate(-15,7)" font-family="sans-serif" font-size="12px" fill="#000" opacity="1">Lagopède alpin</text><text text-anchor="end" transform="translate(1371.4285714285716,900) rotate(-55) translate(-15,7)" font-family="sans-serif" font-size="12px" fill="#000" opacity="1">Chocard à bec jaune</text><text text-anchor="middle" transform="translate(1371.4285714285716,785)" font-family="sans-serif" font-size="12px" fill="#000" opacity="1">Corbeaux</text><text text-anchor="middle" transform="translate(297.14285714285717,585)" font-family="sans-serif" font-size="12px" fill="#000" opacity="1">Porcins</text></g><g class="mark-group role-legend" role="graphics-symbol" aria-roledescription="legend" aria-label="Symbol legend titled 'Classification' for fill color with 10 values: Règne, Embranchement, Sous-embranchement, Classe, Ordre, ending with Genre"><g transform="translate(18,18)"><path class="background" aria-hidden="true" d="M0,0h222v227h-222Z" pointer-events="none"/><g><g class="mark-group role-legend-entry"><g transform="translate(0,29)"><path class="background" aria-hidden="true" d="M0,0h0v0h0Z" pointer-events="none"/><g><g class="mark-group role-scope" role="graphics-object" aria-roledescription="group mark container"><g transform="translate(0,0)"><path class="background" aria-hidden="true" d="M0,0h221.1041717529297v18h-221.1041717529297Z" pointer-events="none" opacity="1"/><g><g class="mark-symbol role-legend-symbol" pointer-events="none"><path transform="translate(9,9)" d="M7.0710678118654755,0A7.0710678118654755,7.0710678118654755,0,1,1,-7.0710678118654755,0A7.0710678118654755,7.0710678118654755,0,1,1,7.0710678118654755,0" fill="#1f77b4" fill-opacity="1" stroke-width="1.5" opacity="1"/></g><g class="mark-text role-legend-label" pointer-events="none"><text text-anchor="start" transform="translate(22,14)" font-family="sans-serif" font-size="18px" fill="#000" opacity="1">Règne</text></g></g><path class="foreground" aria-hidden="true" d="" pointer-events="none" display="none"/></g><g transform="translate(0,20)"><path class="background" aria-hidden="true" d="M0,0h221.1041717529297v18h-221.1041717529297Z" pointer-events="none" opacity="1"/><g><g class="mark-symbol role-legend-symbol" pointer-events="none"><path transform="translate(9,9)" d="M7.0710678118654755,0A7.0710678118654755,7.0710678118654755,0,1,1,-7.0710678118654755,0A7.0710678118654755,7.0710678118654755,0,1,1,7.0710678118654755,0" fill="#ff7f0e" fill-opacity="1" stroke-width="1.5" opacity="1"/></g><g class="mark-text role-legend-label" pointer-events="none"><text text-anchor="start" transform="translate(22,14)" font-family="sans-serif" font-size="18px" fill="#000" opacity="1">Embranchement</text></g></g><path class="foreground" aria-hidden="true" d="" pointer-events="none" display="none"/></g><g transform="translate(0,40)"><path class="background" aria-hidden="true" d="M0,0h221.1041717529297v18h-221.1041717529297Z" pointer-events="none" opacity="1"/><g><g class="mark-symbol role-legend-symbol" pointer-events="none"><path transform="translate(9,9)" d="M7.0710678118654755,0A7.0710678118654755,7.0710678118654755,0,1,1,-7.0710678118654755,0A7.0710678118654755,7.0710678118654755,0,1,1,7.0710678118654755,0" fill="#2ca02c" fill-opacity="1" stroke-width="1.5" opacity="1"/></g><g class="mark-text role-legend-label" pointer-events="none"><text text-anchor="start" transform="translate(22,14)" font-family="sans-serif" font-size="18px" fill="#000" opacity="1">Sous-embranchement</text></g></g><path class="foreground" aria-hidden="true" d="" pointer-events="none" display="none"/></g><g transform="translate(0,60)"><path class="background" aria-hidden="true" d="M0,0h221.1041717529297v18h-221.1041717529297Z" pointer-events="none" opacity="1"/><g><g class="mark-symbol role-legend-symbol" pointer-events="none"><path transform="translate(9,9)" d="M7.0710678118654755,0A7.0710678118654755,7.0710678118654755,0,1,1,-7.0710678118654755,0A7.0710678118654755,7.0710678118654755,0,1,1,7.0710678118654755,0" fill="#d62728" fill-opacity="1" stroke-width="1.5" opacity="1"/></g><g class="mark-text role-legend-label" pointer-events="none"><text text-anchor="start" transform="translate(22,14)" font-family="sans-serif" font-size="18px" fill="#000" opacity="1">Classe</text></g></g><path class="foreground" aria-hidden="true" d="" pointer-events="none" display="none"/></g><g transform="translate(0,80)"><path class="background" aria-hidden="true" d="M0,0h221.1041717529297v18h-221.1041717529297Z" pointer-events="none" opacity="1"/><g><g class="mark-symbol role-legend-symbol" pointer-events="none"><path transform="translate(9,9)" d="M7.0710678118654755,0A7.0710678118654755,7.0710678118654755,0,1,1,-7.0710678118654755,0A7.0710678118654755,7.0710678118654755,0,1,1,7.0710678118654755,0" fill="#9467bd" fill-opacity="1" stroke-width="1.5" opacity="1"/></g><g class="mark-text role-legend-label" pointer-events="none"><text text-anchor="start" transform="translate(22,14)" font-family="sans-serif" font-size="18px" fill="#000" opacity="1">Ordre</text></g></g><path class="foreground" aria-hidden="true" d="" pointer-events="none" display="none"/></g><g transform="translate(0,100)"><path class="background" aria-hidden="true" d="M0,0h221.1041717529297v18h-221.1041717529297Z" pointer-events="none" opacity="1"/><g><g class="mark-symbol role-legend-symbol" pointer-events="none"><path transform="translate(9,9)" d="M7.0710678118654755,0A7.0710678118654755,7.0710678118654755,0,1,1,-7.0710678118654755,0A7.0710678118654755,7.0710678118654755,0,1,1,7.0710678118654755,0" fill="#8c564b" fill-opacity="1" stroke-width="1.5" opacity="1"/></g><g class="mark-text role-legend-label" pointer-events="none"><text text-anchor="start" transform="translate(22,14)" font-family="sans-serif" font-size="18px" fill="#000" opacity="1">Sous-ordre</text></g></g><path class="foreground" aria-hidden="true" d="" pointer-events="none" display="none"/></g><g transform="translate(0,120)"><path class="background" aria-hidden="true" d="M0,0h221.1041717529297v18h-221.1041717529297Z" pointer-events="none" opacity="1"/><g><g class="mark-symbol role-legend-symbol" pointer-events="none"><path transform="translate(9,9)" d="M7.0710678118654755,0A7.0710678118654755,7.0710678118654755,0,1,1,-7.0710678118654755,0A7.0710678118654755,7.0710678118654755,0,1,1,7.0710678118654755,0" fill="#e377c2" fill-opacity="1" stroke-width="1.5" opacity="1"/></g><g class="mark-text role-legend-label" pointer-events="none"><text text-anchor="start" transform="translate(22,14)" font-family="sans-serif" font-size="18px" fill="#000" opacity="1">Famille</text></g></g><path class="foreground" aria-hidden="true" d="" pointer-events="none" display="none"/></g><g transform="translate(0,140)"><path class="background" aria-hidden="true" d="M0,0h221.1041717529297v18h-221.1041717529297Z" pointer-events="none" opacity="1"/><g><g class="mark-symbol role-legend-symbol" pointer-events="none"><path transform="translate(9,9)" d="M7.0710678118654755,0A7.0710678118654755,7.0710678118654755,0,1,1,-7.0710678118654755,0A7.0710678118654755,7.0710678118654755,0,1,1,7.0710678118654755,0" fill="#7f7f7f" fill-opacity="1" stroke-width="1.5" opacity="1"/></g><g class="mark-text role-legend-label" pointer-events="none"><text text-anchor="start" transform="translate(22,14)" font-family="sans-serif" font-size="18px" fill="#000" opacity="1">Sous-famille</text></g></g><path class="foreground" aria-hidden="true" d="" pointer-events="none" display="none"/></g><g transform="translate(0,160)"><path class="background" aria-hidden="true" d="M0,0h221.1041717529297v18h-221.1041717529297Z" pointer-events="none" opacity="1"/><g><g class="mark-symbol role-legend-symbol" pointer-events="none"><path transform="translate(9,9)" d="M7.0710678118654755,0A7.0710678118654755,7.0710678118654755,0,1,1,-7.0710678118654755,0A7.0710678118654755,7.0710678118654755,0,1,1,7.0710678118654755,0" fill="#17becf" fill-opacity="1" stroke-width="1.5" opacity="1"/></g><g class="mark-text role-legend-label" pointer-events="none"><text text-anchor="start" transform="translate(22,14)" font-family="sans-serif" font-size="18px" fill="#000" opacity="1">Genre</text></g></g><path class="foreground" aria-hidden="true" d="" pointer-events="none" display="none"/></g><g transform="translate(0,180)"><path class="background" aria-hidden="true" d="M0,0h221.1041717529297v18h-221.1041717529297Z" pointer-events="none" opacity="1"/><g><g class="mark-symbol role-legend-symbol" pointer-events="none"><path transform="translate(9,9)" d="M7.0710678118654755,0A7.0710678118654755,7.0710678118654755,0,1,1,-7.0710678118654755,0A7.0710678118654755,7.0710678118654755,0,1,1,7.0710678118654755,0" fill="#bcbd22" fill-opacity="1" stroke-width="1.5" opacity="1"/></g><g class="mark-text role-legend-label" pointer-events="none"><text text-anchor="start" transform="translate(22,14)" font-family="sans-serif" font-size="18px" fill="#000" opacity="1">Espèce</text></g></g><path class="foreground" aria-hidden="true" d="" pointer-events="none" display="none"/></g></g></g><path class="foreground" aria-hidden="true" d="" pointer-events="none" display="none"/></g></g><g class="mark-text role-legend-title" pointer-events="none"><text text-anchor="start" transform="translate(0,19)" font-family="sans-serif" font-size="24px" font-weight="bold" fill="#000" opacity="1">Classification</text></g></g><path class="foreground" aria-hidden="true" d="" pointer-events="none" display="none"/></g></g></g><path class="foreground" aria-hidden="true" d="" display="none"/></g></g></g></svg>